<?xml version="1.0" standalone="no"?>
<!DOCTYPE svg PUBLIC "-//W3C//DTD SVG 20010904//EN"
 "http://www.w3.org/TR/2001/REC-SVG-20010904/DTD/svg10.dtd">
<svg version="1.0" xmlns="http://www.w3.org/2000/svg"
 width="260.000000pt" height="260.000000pt" viewBox="0 0 260.000000 260.000000"
 preserveAspectRatio="xMidYMid meet">
<metadata>
Created by potrace 1.14, written by Peter Selinger 2001-2017
</metadata>
<g transform="translate(0.000000,260.000000) scale(0.100000,-0.100000)"
fill="#000000" stroke="none">
<path d="M1342 1580 c-27 -26 -30 -82 -4 -108 10 -10 39 -33 66 -52 l48 -35
-312 -5 -311 -5 -2 -77 -2 -78 314 -2 313 -3 -48 -35 c-72 -52 -84 -66 -84
-105 0 -44 29 -75 71 -75 25 0 68 27 201 126 236 177 236 171 0 348 -181 135
-207 146 -250 106z"/>
</g>
</svg>
